<mxfile host="app.diagrams.net" modified="2023-04-05T23:21:42.958Z" agent="Mozilla/5.0 (Windows NT 10.0; Win64; x64) AppleWebKit/537.36 (KHTML, like Gecko) Chrome/111.0.0.0 Safari/537.36" etag="gtte_ywN7GMiYQMH3zYD" version="21.1.4" type="github">
  <diagram name="Página-1" id="liO9NrFuWOMaR6h-qYLQ">
    <mxGraphModel dx="1434" dy="796" grid="1" gridSize="10" guides="1" tooltips="1" connect="1" arrows="1" fold="1" page="1" pageScale="1" pageWidth="827" pageHeight="1169" math="0" shadow="0">
      <root>
        <mxCell id="0" />
        <mxCell id="1" parent="0" />
        <mxCell id="ytzx9W9WlZkjX6BQFRWA-1" value="&lt;b&gt;CPF (Chave Primária)&lt;br&gt;&lt;/b&gt;" style="rounded=0;whiteSpace=wrap;html=1;" vertex="1" parent="1">
          <mxGeometry x="70" y="440" width="110" height="40" as="geometry" />
        </mxCell>
        <mxCell id="ytzx9W9WlZkjX6BQFRWA-2" value="&lt;b&gt;Nome&lt;/b&gt;" style="rounded=0;whiteSpace=wrap;html=1;" vertex="1" parent="1">
          <mxGeometry x="180" y="440" width="110" height="40" as="geometry" />
        </mxCell>
        <mxCell id="ytzx9W9WlZkjX6BQFRWA-3" value="&lt;b&gt;&lt;font style=&quot;font-size: 16px;&quot;&gt;&lt;u&gt;Proprietários&lt;/u&gt;&lt;/font&gt;&lt;br&gt;&lt;/b&gt;" style="rounded=0;whiteSpace=wrap;html=1;" vertex="1" parent="1">
          <mxGeometry x="70" y="400" width="220" height="40" as="geometry" />
        </mxCell>
        <mxCell id="ytzx9W9WlZkjX6BQFRWA-4" value="&lt;b&gt;Placa (Chave Primária)&lt;br&gt;&lt;/b&gt;" style="rounded=0;whiteSpace=wrap;html=1;" vertex="1" parent="1">
          <mxGeometry x="380" y="440" width="90" height="40" as="geometry" />
        </mxCell>
        <mxCell id="ytzx9W9WlZkjX6BQFRWA-5" value="&lt;b&gt;CPF_&lt;br&gt;Proprietário&lt;br&gt;&lt;/b&gt;" style="rounded=0;whiteSpace=wrap;html=1;" vertex="1" parent="1">
          <mxGeometry x="470" y="440" width="90" height="40" as="geometry" />
        </mxCell>
        <mxCell id="ytzx9W9WlZkjX6BQFRWA-6" value="&lt;b&gt;&lt;font style=&quot;font-size: 16px;&quot;&gt;&lt;u&gt;Carros&lt;/u&gt;&lt;/font&gt;&lt;br&gt;&lt;/b&gt;" style="rounded=0;whiteSpace=wrap;html=1;" vertex="1" parent="1">
          <mxGeometry x="380" y="400" width="360" height="40" as="geometry" />
        </mxCell>
        <mxCell id="ytzx9W9WlZkjX6BQFRWA-7" value="&lt;b&gt;Modelo&lt;/b&gt;" style="rounded=0;whiteSpace=wrap;html=1;" vertex="1" parent="1">
          <mxGeometry x="650" y="440" width="90" height="40" as="geometry" />
        </mxCell>
        <mxCell id="ytzx9W9WlZkjX6BQFRWA-8" value="" style="rounded=0;whiteSpace=wrap;html=1;" vertex="1" parent="1">
          <mxGeometry x="70" y="40" width="180" height="290" as="geometry" />
        </mxCell>
        <mxCell id="ytzx9W9WlZkjX6BQFRWA-9" value="&lt;u&gt;Proprietários&lt;/u&gt;" style="text;strokeColor=none;fillColor=none;html=1;fontSize=24;fontStyle=1;verticalAlign=middle;align=center;" vertex="1" parent="1">
          <mxGeometry x="110" y="60" width="100" height="40" as="geometry" />
        </mxCell>
        <mxCell id="ytzx9W9WlZkjX6BQFRWA-10" value="CPF (Chave Primária)" style="rounded=0;whiteSpace=wrap;html=1;" vertex="1" parent="1">
          <mxGeometry x="100" y="120" width="120" height="60" as="geometry" />
        </mxCell>
        <mxCell id="ytzx9W9WlZkjX6BQFRWA-11" value="Nome" style="rounded=0;whiteSpace=wrap;html=1;" vertex="1" parent="1">
          <mxGeometry x="100" y="210" width="120" height="60" as="geometry" />
        </mxCell>
        <mxCell id="ytzx9W9WlZkjX6BQFRWA-12" value="" style="rounded=0;whiteSpace=wrap;html=1;" vertex="1" parent="1">
          <mxGeometry x="350" y="40" width="280" height="290" as="geometry" />
        </mxCell>
        <mxCell id="ytzx9W9WlZkjX6BQFRWA-13" value="Carros" style="text;strokeColor=none;fillColor=none;html=1;fontSize=24;fontStyle=5;verticalAlign=middle;align=center;" vertex="1" parent="1">
          <mxGeometry x="440" y="60" width="100" height="40" as="geometry" />
        </mxCell>
        <mxCell id="ytzx9W9WlZkjX6BQFRWA-14" value="Placa (Chave Primária)" style="rounded=0;whiteSpace=wrap;html=1;" vertex="1" parent="1">
          <mxGeometry x="380" y="130" width="110" height="60" as="geometry" />
        </mxCell>
        <mxCell id="ytzx9W9WlZkjX6BQFRWA-15" value="CPF_Proprietário (Chave Estrangeira)" style="rounded=0;whiteSpace=wrap;html=1;" vertex="1" parent="1">
          <mxGeometry x="380" y="210" width="110" height="60" as="geometry" />
        </mxCell>
        <mxCell id="ytzx9W9WlZkjX6BQFRWA-16" value="Marca" style="rounded=0;whiteSpace=wrap;html=1;" vertex="1" parent="1">
          <mxGeometry x="500" y="130" width="110" height="60" as="geometry" />
        </mxCell>
        <mxCell id="ytzx9W9WlZkjX6BQFRWA-17" value="Modelo" style="rounded=0;whiteSpace=wrap;html=1;" vertex="1" parent="1">
          <mxGeometry x="500" y="210" width="110" height="60" as="geometry" />
        </mxCell>
        <mxCell id="ytzx9W9WlZkjX6BQFRWA-18" value="" style="endArrow=classic;html=1;rounded=0;exitX=1;exitY=0.5;exitDx=0;exitDy=0;entryX=0;entryY=0.5;entryDx=0;entryDy=0;" edge="1" parent="1" source="ytzx9W9WlZkjX6BQFRWA-10" target="ytzx9W9WlZkjX6BQFRWA-15">
          <mxGeometry width="50" height="50" relative="1" as="geometry">
            <mxPoint x="420" y="190" as="sourcePoint" />
            <mxPoint x="470" y="140" as="targetPoint" />
            <Array as="points">
              <mxPoint x="300" y="150" />
              <mxPoint x="300" y="240" />
            </Array>
          </mxGeometry>
        </mxCell>
        <mxCell id="ytzx9W9WlZkjX6BQFRWA-19" value="" style="rounded=0;whiteSpace=wrap;html=1;" vertex="1" parent="1">
          <mxGeometry x="380" y="480" width="90" height="50" as="geometry" />
        </mxCell>
        <mxCell id="ytzx9W9WlZkjX6BQFRWA-20" value="JKG-4418" style="text;html=1;strokeColor=none;fillColor=none;align=center;verticalAlign=middle;whiteSpace=wrap;rounded=0;fontSize=13;" vertex="1" parent="1">
          <mxGeometry x="380" y="490" width="90" height="30" as="geometry" />
        </mxCell>
        <mxCell id="ytzx9W9WlZkjX6BQFRWA-21" value="" style="rounded=0;whiteSpace=wrap;html=1;" vertex="1" parent="1">
          <mxGeometry x="470" y="480" width="90" height="50" as="geometry" />
        </mxCell>
        <mxCell id="ytzx9W9WlZkjX6BQFRWA-22" value="&lt;b&gt;Marca&lt;/b&gt;" style="rounded=0;whiteSpace=wrap;html=1;" vertex="1" parent="1">
          <mxGeometry x="560" y="440" width="90" height="40" as="geometry" />
        </mxCell>
        <mxCell id="ytzx9W9WlZkjX6BQFRWA-23" value="" style="rounded=0;whiteSpace=wrap;html=1;" vertex="1" parent="1">
          <mxGeometry x="560" y="480" width="90" height="50" as="geometry" />
        </mxCell>
        <mxCell id="ytzx9W9WlZkjX6BQFRWA-24" value="" style="rounded=0;whiteSpace=wrap;html=1;" vertex="1" parent="1">
          <mxGeometry x="650" y="480" width="90" height="50" as="geometry" />
        </mxCell>
        <mxCell id="ytzx9W9WlZkjX6BQFRWA-25" value="08104777181" style="text;html=1;strokeColor=none;fillColor=none;align=center;verticalAlign=middle;whiteSpace=wrap;rounded=0;fontSize=13;" vertex="1" parent="1">
          <mxGeometry x="470" y="490" width="90" height="30" as="geometry" />
        </mxCell>
        <mxCell id="ytzx9W9WlZkjX6BQFRWA-26" value="Honda" style="text;html=1;strokeColor=none;fillColor=none;align=center;verticalAlign=middle;whiteSpace=wrap;rounded=0;fontSize=13;" vertex="1" parent="1">
          <mxGeometry x="560" y="490" width="90" height="30" as="geometry" />
        </mxCell>
        <mxCell id="ytzx9W9WlZkjX6BQFRWA-27" value="Civic" style="text;html=1;strokeColor=none;fillColor=none;align=center;verticalAlign=middle;whiteSpace=wrap;rounded=0;fontSize=13;" vertex="1" parent="1">
          <mxGeometry x="650" y="490" width="90" height="30" as="geometry" />
        </mxCell>
        <mxCell id="ytzx9W9WlZkjX6BQFRWA-28" value="" style="rounded=0;whiteSpace=wrap;html=1;" vertex="1" parent="1">
          <mxGeometry x="70" y="480" width="110" height="50" as="geometry" />
        </mxCell>
        <mxCell id="ytzx9W9WlZkjX6BQFRWA-29" value="" style="rounded=0;whiteSpace=wrap;html=1;" vertex="1" parent="1">
          <mxGeometry x="180" y="480" width="110" height="50" as="geometry" />
        </mxCell>
        <mxCell id="ytzx9W9WlZkjX6BQFRWA-30" value="- 08104777181" style="text;html=1;strokeColor=none;fillColor=none;align=center;verticalAlign=middle;whiteSpace=wrap;rounded=0;fontSize=12;" vertex="1" parent="1">
          <mxGeometry x="82.5" y="490" width="85" height="30" as="geometry" />
        </mxCell>
        <mxCell id="ytzx9W9WlZkjX6BQFRWA-31" value="- Guilherme Soares Rocha" style="text;html=1;strokeColor=none;fillColor=none;align=center;verticalAlign=middle;whiteSpace=wrap;rounded=0;fontSize=12;" vertex="1" parent="1">
          <mxGeometry x="190" y="490" width="90" height="30" as="geometry" />
        </mxCell>
        <mxCell id="ytzx9W9WlZkjX6BQFRWA-32" value="" style="rounded=0;whiteSpace=wrap;html=1;fontSize=12;" vertex="1" parent="1">
          <mxGeometry x="70" y="530" width="110" height="50" as="geometry" />
        </mxCell>
        <mxCell id="ytzx9W9WlZkjX6BQFRWA-33" value="" style="rounded=0;whiteSpace=wrap;html=1;" vertex="1" parent="1">
          <mxGeometry x="70" y="580" width="110" height="50" as="geometry" />
        </mxCell>
        <mxCell id="ytzx9W9WlZkjX6BQFRWA-34" value="" style="rounded=0;whiteSpace=wrap;html=1;fontSize=12;" vertex="1" parent="1">
          <mxGeometry x="180" y="530" width="110" height="50" as="geometry" />
        </mxCell>
        <mxCell id="ytzx9W9WlZkjX6BQFRWA-35" value="" style="rounded=0;whiteSpace=wrap;html=1;" vertex="1" parent="1">
          <mxGeometry x="180" y="580" width="110" height="50" as="geometry" />
        </mxCell>
        <mxCell id="ytzx9W9WlZkjX6BQFRWA-36" value="- 09541162169" style="text;html=1;strokeColor=none;fillColor=none;align=center;verticalAlign=middle;whiteSpace=wrap;rounded=0;fontSize=12;" vertex="1" parent="1">
          <mxGeometry x="77.5" y="540" width="90" height="30" as="geometry" />
        </mxCell>
        <mxCell id="ytzx9W9WlZkjX6BQFRWA-37" value="- João Manoel Barreto Neto" style="text;html=1;strokeColor=none;fillColor=none;align=center;verticalAlign=middle;whiteSpace=wrap;rounded=0;fontSize=12;" vertex="1" parent="1">
          <mxGeometry x="190" y="540" width="90" height="30" as="geometry" />
        </mxCell>
        <mxCell id="ytzx9W9WlZkjX6BQFRWA-38" value="- 07842381119" style="text;html=1;strokeColor=none;fillColor=none;align=center;verticalAlign=middle;whiteSpace=wrap;rounded=0;fontSize=12;" vertex="1" parent="1">
          <mxGeometry x="77.5" y="590" width="90" height="30" as="geometry" />
        </mxCell>
        <mxCell id="ytzx9W9WlZkjX6BQFRWA-39" value="- Miguel Matos Costa de Frias Barbosa" style="text;html=1;strokeColor=none;fillColor=none;align=center;verticalAlign=middle;whiteSpace=wrap;rounded=0;fontSize=12;" vertex="1" parent="1">
          <mxGeometry x="190" y="590" width="90" height="30" as="geometry" />
        </mxCell>
        <mxCell id="ytzx9W9WlZkjX6BQFRWA-40" value="" style="rounded=0;whiteSpace=wrap;html=1;" vertex="1" parent="1">
          <mxGeometry x="380" y="530" width="90" height="50" as="geometry" />
        </mxCell>
        <mxCell id="ytzx9W9WlZkjX6BQFRWA-41" value="" style="rounded=0;whiteSpace=wrap;html=1;" vertex="1" parent="1">
          <mxGeometry x="380" y="580" width="90" height="50" as="geometry" />
        </mxCell>
        <mxCell id="ytzx9W9WlZkjX6BQFRWA-42" value="" style="rounded=0;whiteSpace=wrap;html=1;" vertex="1" parent="1">
          <mxGeometry x="470" y="530" width="90" height="50" as="geometry" />
        </mxCell>
        <mxCell id="ytzx9W9WlZkjX6BQFRWA-43" value="" style="rounded=0;whiteSpace=wrap;html=1;" vertex="1" parent="1">
          <mxGeometry x="470" y="580" width="90" height="50" as="geometry" />
        </mxCell>
        <mxCell id="ytzx9W9WlZkjX6BQFRWA-44" value="" style="rounded=0;whiteSpace=wrap;html=1;" vertex="1" parent="1">
          <mxGeometry x="560" y="530" width="90" height="50" as="geometry" />
        </mxCell>
        <mxCell id="ytzx9W9WlZkjX6BQFRWA-45" value="" style="rounded=0;whiteSpace=wrap;html=1;" vertex="1" parent="1">
          <mxGeometry x="560" y="580" width="90" height="50" as="geometry" />
        </mxCell>
        <mxCell id="ytzx9W9WlZkjX6BQFRWA-46" value="" style="rounded=0;whiteSpace=wrap;html=1;" vertex="1" parent="1">
          <mxGeometry x="650" y="530" width="90" height="50" as="geometry" />
        </mxCell>
        <mxCell id="ytzx9W9WlZkjX6BQFRWA-47" value="" style="rounded=0;whiteSpace=wrap;html=1;" vertex="1" parent="1">
          <mxGeometry x="650" y="580" width="90" height="50" as="geometry" />
        </mxCell>
        <mxCell id="ytzx9W9WlZkjX6BQFRWA-48" value="09541162169" style="text;html=1;strokeColor=none;fillColor=none;align=center;verticalAlign=middle;whiteSpace=wrap;rounded=0;fontSize=13;" vertex="1" parent="1">
          <mxGeometry x="470" y="540" width="90" height="30" as="geometry" />
        </mxCell>
        <mxCell id="ytzx9W9WlZkjX6BQFRWA-49" value="07842381119" style="text;html=1;strokeColor=none;fillColor=none;align=center;verticalAlign=middle;whiteSpace=wrap;rounded=0;fontSize=13;" vertex="1" parent="1">
          <mxGeometry x="470" y="590" width="90" height="30" as="geometry" />
        </mxCell>
        <mxCell id="ytzx9W9WlZkjX6BQFRWA-50" value="JGP-0967" style="text;html=1;strokeColor=none;fillColor=none;align=center;verticalAlign=middle;whiteSpace=wrap;rounded=0;fontSize=13;" vertex="1" parent="1">
          <mxGeometry x="380" y="540" width="90" height="30" as="geometry" />
        </mxCell>
        <mxCell id="ytzx9W9WlZkjX6BQFRWA-51" value="JEM-4007" style="text;html=1;strokeColor=none;fillColor=none;align=center;verticalAlign=middle;whiteSpace=wrap;rounded=0;fontSize=13;" vertex="1" parent="1">
          <mxGeometry x="380" y="590" width="90" height="30" as="geometry" />
        </mxCell>
        <mxCell id="ytzx9W9WlZkjX6BQFRWA-52" value="Volkswagen" style="text;html=1;strokeColor=none;fillColor=none;align=center;verticalAlign=middle;whiteSpace=wrap;rounded=0;fontSize=13;" vertex="1" parent="1">
          <mxGeometry x="560" y="540" width="90" height="30" as="geometry" />
        </mxCell>
        <mxCell id="ytzx9W9WlZkjX6BQFRWA-53" value="Fox" style="text;html=1;strokeColor=none;fillColor=none;align=center;verticalAlign=middle;whiteSpace=wrap;rounded=0;fontSize=13;" vertex="1" parent="1">
          <mxGeometry x="650" y="540" width="90" height="30" as="geometry" />
        </mxCell>
        <mxCell id="ytzx9W9WlZkjX6BQFRWA-54" value="Fiat" style="text;html=1;strokeColor=none;fillColor=none;align=center;verticalAlign=middle;whiteSpace=wrap;rounded=0;fontSize=13;" vertex="1" parent="1">
          <mxGeometry x="560" y="590" width="90" height="30" as="geometry" />
        </mxCell>
        <mxCell id="ytzx9W9WlZkjX6BQFRWA-55" value="500c" style="text;html=1;strokeColor=none;fillColor=none;align=center;verticalAlign=middle;whiteSpace=wrap;rounded=0;fontSize=13;" vertex="1" parent="1">
          <mxGeometry x="650" y="590" width="90" height="30" as="geometry" />
        </mxCell>
      </root>
    </mxGraphModel>
  </diagram>
</mxfile>
